<svg width="389" height="437" viewBox="0 0 389 437" fill="none" xmlns="http://www.w3.org/2000/svg">
<path d="M0 0H389V437H0V0Z" fill="white"/>
<path fill-rule="evenodd" clip-rule="evenodd" d="M203.334 32H236.667V82H203.334V32ZM206.112 34.7778V79.2222H233.89V34.7778H206.112Z" fill="#0A141E"/>
<path fill-rule="evenodd" clip-rule="evenodd" d="M210.277 40.3333C210.277 38.7992 211.521 37.5555 213.055 37.5555H226.944C228.478 37.5555 229.722 38.7992 229.722 40.3333V45.8889C229.722 47.423 228.478 48.6667 226.944 48.6667H213.055C211.521 48.6667 210.277 47.423 210.277 45.8889V40.3333ZM226.944 40.3333H213.055V45.8889H226.944V40.3333Z" fill="#F22800"/>
<path fill-rule="evenodd" clip-rule="evenodd" d="M210.277 54.2222C210.277 52.6881 211.521 51.4445 213.055 51.4445H226.944C228.478 51.4445 229.722 52.6881 229.722 54.2222V59.7778C229.722 61.3119 228.478 62.5556 226.944 62.5556H213.055C211.521 62.5556 210.277 61.3119 210.277 59.7778V54.2222ZM226.944 54.2222H213.055V59.7778H226.944V54.2222Z" fill="#F22800"/>
<path fill-rule="evenodd" clip-rule="evenodd" d="M220.001 70.8889C219.234 70.8889 218.612 71.5107 218.612 72.2778C218.612 73.0448 219.234 73.6666 220.001 73.6666C220.768 73.6666 221.39 73.0448 221.39 72.2778C221.39 71.5107 220.768 70.8889 220.001 70.8889ZM215.834 72.2778C215.834 69.9766 217.699 68.1111 220.001 68.1111C222.302 68.1111 224.167 69.9766 224.167 72.2778C224.167 74.5789 222.302 76.4444 220.001 76.4444C217.699 76.4444 215.834 74.5789 215.834 72.2778Z" fill="#0A141E"/>
<path d="M206.44 107V94.4H211.102C212.32 94.4 213.4 94.649 214.342 95.147C215.284 95.645 216.022 96.365 216.556 97.307C217.096 98.243 217.366 99.374 217.366 100.7C217.366 102.026 217.096 103.16 216.556 104.102C216.022 105.038 215.284 105.755 214.342 106.253C213.4 106.751 212.32 107 211.102 107H206.44ZM208.15 105.452H211.102C212.062 105.452 212.866 105.254 213.514 104.858C214.168 104.456 214.66 103.898 214.99 103.184C215.326 102.47 215.494 101.642 215.494 100.7C215.494 99.758 215.326 98.93 214.99 98.216C214.66 97.502 214.168 96.947 213.514 96.551C212.866 96.149 212.062 95.948 211.102 95.948H208.15V105.452ZM223.301 107.18C222.263 107.18 221.39 106.967 220.682 106.541C219.974 106.115 219.437 105.551 219.071 104.849C218.711 104.141 218.531 103.364 218.531 102.518C218.531 101.696 218.699 100.943 219.035 100.259C219.377 99.575 219.869 99.029 220.511 98.621C221.159 98.207 221.939 98 222.851 98C223.583 98 224.234 98.147 224.804 98.441C225.38 98.729 225.83 99.152 226.154 99.71C226.484 100.262 226.649 100.934 226.649 101.726C226.649 101.852 226.643 101.99 226.631 102.14C226.625 102.284 226.607 102.434 226.577 102.59H220.187C220.265 103.406 220.46 104.042 220.772 104.498C221.084 104.954 221.477 105.275 221.951 105.461C222.425 105.647 222.941 105.74 223.499 105.74C223.907 105.74 224.333 105.698 224.777 105.614C225.221 105.53 225.641 105.398 226.037 105.218L226.253 106.496C225.911 106.646 225.494 106.799 225.002 106.955C224.51 107.105 223.943 107.18 223.301 107.18ZM220.331 101.474H224.975C224.975 101.06 224.897 100.7 224.741 100.394C224.585 100.088 224.348 99.854 224.03 99.692C223.712 99.524 223.307 99.44 222.815 99.44C222.095 99.44 221.54 99.62 221.15 99.98C220.766 100.334 220.493 100.832 220.331 101.474ZM230.641 107L227.275 98.18H229.075L231.541 105.218L233.989 98.18H235.807L232.459 107H230.641Z" fill="#0A141E"/>
<path fill-rule="evenodd" clip-rule="evenodd" d="M202.334 179H235.667V229H202.334V179ZM205.112 181.778V226.222H232.89V181.778H205.112Z" fill="#0A141E"/>
<path fill-rule="evenodd" clip-rule="evenodd" d="M209.277 187.333C209.277 185.799 210.521 184.556 212.055 184.556H225.944C227.478 184.556 228.722 185.799 228.722 187.333V192.889C228.722 194.423 227.478 195.667 225.944 195.667H212.055C210.521 195.667 209.277 194.423 209.277 192.889V187.333ZM225.944 187.333H212.055V192.889H225.944V187.333Z" fill="#F22800"/>
<path fill-rule="evenodd" clip-rule="evenodd" d="M209.277 201.222C209.277 199.688 210.521 198.444 212.055 198.444H225.944C227.478 198.444 228.722 199.688 228.722 201.222V206.778C228.722 208.312 227.478 209.556 225.944 209.556H212.055C210.521 209.556 209.277 208.312 209.277 206.778V201.222ZM225.944 201.222H212.055V206.778H225.944V201.222Z" fill="#F22800"/>
<path fill-rule="evenodd" clip-rule="evenodd" d="M219.001 217.889C218.234 217.889 217.612 218.511 217.612 219.278C217.612 220.045 218.234 220.667 219.001 220.667C219.768 220.667 220.39 220.045 220.39 219.278C220.39 218.511 219.768 217.889 219.001 217.889ZM214.834 219.278C214.834 216.977 216.699 215.111 219.001 215.111C221.302 215.111 223.167 216.977 223.167 219.278C223.167 221.579 221.302 223.444 219.001 223.444C216.699 223.444 214.834 221.579 214.834 219.278Z" fill="#0A141E"/>
<path d="M214.938 250.364L215.91 249.374L219.87 253.262L218.898 254.252L214.938 250.364ZM213.93 254.252C212.73 254.252 211.662 253.985 210.726 253.451C209.79 252.911 209.055 252.152 208.521 251.174C207.987 250.19 207.72 249.032 207.72 247.7C207.72 246.368 207.987 245.213 208.521 244.235C209.055 243.251 209.79 242.492 210.726 241.958C211.662 241.418 212.73 241.148 213.93 241.148C215.13 241.148 216.198 241.418 217.134 241.958C218.07 242.492 218.805 243.251 219.339 244.235C219.873 245.213 220.14 246.368 220.14 247.7C220.14 249.032 219.873 250.19 219.339 251.174C218.805 252.152 218.07 252.911 217.134 253.451C216.198 253.985 215.13 254.252 213.93 254.252ZM213.93 252.596C214.896 252.596 215.703 252.38 216.351 251.948C216.999 251.51 217.485 250.922 217.809 250.184C218.139 249.44 218.304 248.612 218.304 247.7C218.304 246.788 218.139 245.963 217.809 245.225C217.485 244.481 216.999 243.893 216.351 243.461C215.703 243.023 214.896 242.804 213.93 242.804C212.964 242.804 212.157 243.023 211.509 243.461C210.861 243.893 210.372 244.481 210.042 245.225C209.718 245.963 209.556 246.788 209.556 247.7C209.556 248.612 209.718 249.44 210.042 250.184C210.372 250.922 210.861 251.51 211.509 251.948C212.157 252.38 212.964 252.596 213.93 252.596ZM228.902 250.598H223.502V249.05H228.902V250.598ZM225.95 243.074H226.454L222.584 254H220.784L225.302 241.4H227.102L231.62 254H229.82L225.95 243.074Z" fill="#0A141E"/>
<path fill-rule="evenodd" clip-rule="evenodd" d="M80.2786 181.778H49.7231V192.889H80.2786V181.778ZM46.9453 179V195.667H83.0564V179H46.9453Z" fill="#F22800"/>
<path fill-rule="evenodd" clip-rule="evenodd" d="M80.2786 201.222H49.7231V209.556H80.2786V201.222ZM46.9453 198.444V212.333H83.0564V198.444H46.9453Z" fill="#0A141E"/>
<path fill-rule="evenodd" clip-rule="evenodd" d="M80.2786 217.889H49.7231V226.222H80.2786V217.889ZM46.9453 215.111V229H83.0564V215.111H46.9453Z" fill="#0A141E"/>
<path fill-rule="evenodd" clip-rule="evenodd" d="M56.6664 188.722H53.8887V185.944H56.6664V188.722Z" fill="#0A141E"/>
<path fill-rule="evenodd" clip-rule="evenodd" d="M62.2231 188.722H59.4453V185.944H62.2231V188.722Z" fill="#0A141E"/>
<path fill-rule="evenodd" clip-rule="evenodd" d="M70.5551 206.778H67.7773V204H70.5551V206.778Z" fill="#F22800"/>
<path fill-rule="evenodd" clip-rule="evenodd" d="M76.1118 206.778H73.334V204H76.1118V206.778Z" fill="#F22800"/>
<path fill-rule="evenodd" clip-rule="evenodd" d="M70.5551 223.444H67.7773V220.667H70.5551V223.444Z" fill="#F22800"/>
<path fill-rule="evenodd" clip-rule="evenodd" d="M76.1118 223.444H73.334V220.667H76.1118V223.444Z" fill="#F22800"/>
<path d="M33.44 254V241.4H35.15V252.452H40.928V254H33.44ZM42.1156 254V245.18H43.7356V254H42.1156ZM42.1156 243.2V241.4H43.7356V243.2H42.1156ZM46.542 254V246.44H45.012L45.228 245.18H46.542V243.092C46.542 242.306 46.752 241.679 47.172 241.211C47.592 240.737 48.21 240.5 49.026 240.5C49.326 240.5 49.587 240.521 49.809 240.563C50.037 240.605 50.244 240.662 50.43 240.734L50.178 242.102C50.034 242.048 49.893 242.009 49.755 241.985C49.617 241.955 49.458 241.94 49.278 241.94C48.93 241.94 48.657 242.039 48.459 242.237C48.261 242.429 48.162 242.75 48.162 243.2V245.18H50.538V246.44H48.162V254H46.542ZM55.9432 254.18C54.9052 254.18 54.0322 253.967 53.3242 253.541C52.6162 253.115 52.0792 252.551 51.7132 251.849C51.3532 251.141 51.1732 250.364 51.1732 249.518C51.1732 248.696 51.3412 247.943 51.6772 247.259C52.0192 246.575 52.5112 246.029 53.1532 245.621C53.8012 245.207 54.5812 245 55.4932 245C56.2252 245 56.8762 245.147 57.4462 245.441C58.0222 245.729 58.4722 246.152 58.7962 246.71C59.1262 247.262 59.2912 247.934 59.2912 248.726C59.2912 248.852 59.2852 248.99 59.2732 249.14C59.2672 249.284 59.2492 249.434 59.2192 249.59H52.8292C52.9072 250.406 53.1022 251.042 53.4142 251.498C53.7262 251.954 54.1192 252.275 54.5932 252.461C55.0672 252.647 55.5832 252.74 56.1412 252.74C56.5492 252.74 56.9752 252.698 57.4192 252.614C57.8632 252.53 58.2832 252.398 58.6792 252.218L58.8952 253.496C58.5532 253.646 58.1362 253.799 57.6442 253.955C57.1522 254.105 56.5852 254.18 55.9432 254.18ZM52.9732 248.474H57.6172C57.6172 248.06 57.5392 247.7 57.3832 247.394C57.2272 247.088 56.9902 246.854 56.6722 246.692C56.3542 246.524 55.9492 246.44 55.4572 246.44C54.7372 246.44 54.1822 246.62 53.7922 246.98C53.4082 247.334 53.1352 247.832 52.9732 248.474ZM62.5201 254V242.948H58.8481V241.4H67.9021V242.948H64.2301V254H62.5201ZM69.1156 254V245.18H70.7356V254H69.1156ZM69.1156 243.2V241.4H70.7356V243.2H69.1156ZM72.93 254V245.18H74.19L74.514 246.872L73.902 246.584C74.454 245.99 74.991 245.579 75.513 245.351C76.035 245.117 76.584 245 77.16 245C77.592 245 78.006 245.072 78.402 245.216C78.804 245.354 79.164 245.6 79.482 245.954C79.806 246.302 80.064 246.788 80.256 247.412L79.806 247.214C80.07 246.53 80.475 245.99 81.021 245.594C81.567 245.198 82.302 245 83.226 245C83.964 245 84.585 245.138 85.089 245.414C85.593 245.684 85.971 246.101 86.223 246.665C86.481 247.223 86.61 247.934 86.61 248.798V254H84.99V248.816C84.99 247.988 84.828 247.385 84.504 247.007C84.18 246.629 83.652 246.44 82.92 246.44C82.404 246.44 81.99 246.521 81.678 246.683C81.366 246.839 81.129 247.043 80.967 247.295C80.811 247.547 80.706 247.814 80.652 248.096C80.604 248.378 80.58 248.642 80.58 248.888V254H78.96V249.14C78.96 248.42 78.873 247.865 78.699 247.475C78.525 247.085 78.282 246.815 77.97 246.665C77.658 246.515 77.298 246.44 76.89 246.44C76.296 246.44 75.765 246.572 75.297 246.836C74.829 247.094 74.514 247.508 74.352 248.078L74.55 247.196V254H72.93ZM92.9452 254.18C91.9072 254.18 91.0342 253.967 90.3262 253.541C89.6182 253.115 89.0812 252.551 88.7152 251.849C88.3552 251.141 88.1752 250.364 88.1752 249.518C88.1752 248.696 88.3432 247.943 88.6792 247.259C89.0212 246.575 89.5132 246.029 90.1552 245.621C90.8032 245.207 91.5832 245 92.4952 245C93.2272 245 93.8782 245.147 94.4482 245.441C95.0242 245.729 95.4742 246.152 95.7982 246.71C96.1282 247.262 96.2932 247.934 96.2932 248.726C96.2932 248.852 96.2872 248.99 96.2752 249.14C96.2692 249.284 96.2512 249.434 96.2212 249.59H89.8312C89.9092 250.406 90.1042 251.042 90.4162 251.498C90.7282 251.954 91.1212 252.275 91.5952 252.461C92.0692 252.647 92.5852 252.74 93.1432 252.74C93.5512 252.74 93.9772 252.698 94.4212 252.614C94.8652 252.53 95.2852 252.398 95.6812 252.218L95.8972 253.496C95.5552 253.646 95.1382 253.799 94.6462 253.955C94.1542 254.105 93.5872 254.18 92.9452 254.18ZM89.9752 248.474H94.6192C94.6192 248.06 94.5412 247.7 94.3852 247.394C94.2292 247.088 93.9922 246.854 93.6742 246.692C93.3562 246.524 92.9512 246.44 92.4592 246.44C91.7392 246.44 91.1842 246.62 90.7942 246.98C90.4102 247.334 90.1372 247.832 89.9752 248.474Z" fill="#0A141E"/>
<path fill-rule="evenodd" clip-rule="evenodd" d="M202.334 325H235.667V375H202.334V325ZM205.112 327.778V372.222H232.89V327.778H205.112Z" fill="#0A141E"/>
<path fill-rule="evenodd" clip-rule="evenodd" d="M209.277 333.333C209.277 331.799 210.521 330.556 212.055 330.556H225.944C227.478 330.556 228.722 331.799 228.722 333.333V338.889C228.722 340.423 227.478 341.667 225.944 341.667H212.055C210.521 341.667 209.277 340.423 209.277 338.889V333.333ZM225.944 333.333H212.055V338.889H225.944V333.333Z" fill="#F22800"/>
<path fill-rule="evenodd" clip-rule="evenodd" d="M209.277 347.222C209.277 345.688 210.521 344.444 212.055 344.444H225.944C227.478 344.444 228.722 345.688 228.722 347.222V352.778C228.722 354.312 227.478 355.556 225.944 355.556H212.055C210.521 355.556 209.277 354.312 209.277 352.778V347.222ZM225.944 347.222H212.055V352.778H225.944V347.222Z" fill="#F22800"/>
<path fill-rule="evenodd" clip-rule="evenodd" d="M219.001 363.889C218.234 363.889 217.612 364.511 217.612 365.278C217.612 366.045 218.234 366.667 219.001 366.667C219.768 366.667 220.39 366.045 220.39 365.278C220.39 364.511 219.768 363.889 219.001 363.889ZM214.834 365.278C214.834 362.977 216.699 361.111 219.001 361.111C221.302 361.111 223.167 362.977 223.167 365.278C223.167 367.579 221.302 369.444 219.001 369.444C216.699 369.444 214.834 367.579 214.834 365.278Z" fill="#0A141E"/>
<path d="M202.44 400V387.4H206.598C207.444 387.4 208.188 387.535 208.83 387.805C209.472 388.075 209.97 388.51 210.324 389.11C210.684 389.71 210.864 390.502 210.864 391.486C210.864 392.452 210.684 393.238 210.324 393.844C209.97 394.444 209.472 394.885 208.83 395.167C208.188 395.449 207.444 395.59 206.598 395.59H204.24V400H202.44ZM204.24 394.06H206.346C207.264 394.06 207.951 393.853 208.407 393.439C208.869 393.019 209.1 392.374 209.1 391.504C209.1 390.628 208.881 389.98 208.443 389.56C208.011 389.14 207.312 388.93 206.346 388.93H204.24V394.06ZM212.258 400V391.18H213.59L213.788 392.638C214.238 392.08 214.667 391.669 215.075 391.405C215.489 391.135 215.93 391 216.398 391C216.548 391 216.686 391.018 216.812 391.054L216.65 392.836C216.572 392.818 216.488 392.806 216.398 392.8C216.314 392.788 216.218 392.782 216.11 392.782C215.642 392.782 215.21 392.887 214.814 393.097C214.424 393.301 214.148 393.526 213.986 393.772V400H212.258ZM221.577 400.18C220.653 400.18 219.864 399.976 219.21 399.568C218.562 399.154 218.064 398.602 217.716 397.912C217.374 397.216 217.203 396.442 217.203 395.59C217.203 394.738 217.374 393.967 217.716 393.277C218.064 392.581 218.562 392.029 219.21 391.621C219.864 391.207 220.653 391 221.577 391C222.495 391 223.281 391.207 223.935 391.621C224.589 392.029 225.087 392.581 225.429 393.277C225.777 393.967 225.951 394.738 225.951 395.59C225.951 396.442 225.777 397.216 225.429 397.912C225.087 398.602 224.589 399.154 223.935 399.568C223.281 399.976 222.495 400.18 221.577 400.18ZM221.577 398.74C222.453 398.74 223.125 398.464 223.593 397.912C224.061 397.354 224.295 396.58 224.295 395.59C224.295 394.6 224.061 393.829 223.593 393.277C223.125 392.719 222.453 392.44 221.577 392.44C220.707 392.44 220.035 392.719 219.561 393.277C219.093 393.829 218.859 394.6 218.859 395.59C218.859 396.58 219.093 397.354 219.561 397.912C220.035 398.464 220.707 398.74 221.577 398.74ZM231.113 400.18C230.363 400.18 229.685 399.976 229.079 399.568C228.473 399.16 227.99 398.611 227.63 397.921C227.276 397.231 227.099 396.46 227.099 395.608C227.099 394.798 227.261 394.042 227.585 393.34C227.915 392.638 228.38 392.074 228.98 391.648C229.58 391.216 230.291 391 231.113 391C231.701 391 232.268 391.129 232.814 391.387C233.366 391.639 233.813 392.062 234.155 392.656L233.813 392.89V386.5H235.433V400H233.993L233.687 398.128L234.101 398.416C233.843 398.998 233.438 399.439 232.886 399.739C232.334 400.033 231.743 400.18 231.113 400.18ZM231.401 398.74C231.809 398.74 232.211 398.635 232.607 398.425C233.009 398.215 233.339 397.882 233.597 397.426C233.861 396.964 233.993 396.358 233.993 395.608C233.993 394.912 233.861 394.33 233.597 393.862C233.339 393.388 233.009 393.034 232.607 392.8C232.211 392.56 231.809 392.44 231.401 392.44C230.849 392.44 230.375 392.578 229.979 392.854C229.583 393.13 229.28 393.508 229.07 393.988C228.86 394.462 228.755 395.002 228.755 395.608C228.755 396.178 228.86 396.7 229.07 397.174C229.28 397.648 229.583 398.029 229.979 398.317C230.375 398.599 230.849 398.74 231.401 398.74Z" fill="#0A141E"/>
<path d="M192.707 57.7071C193.098 57.3166 193.098 56.6834 192.707 56.2929L186.343 49.9289C185.953 49.5384 185.319 49.5384 184.929 49.9289C184.538 50.3195 184.538 50.9526 184.929 51.3431L190.586 57L184.929 62.6569C184.538 63.0474 184.538 63.6805 184.929 64.0711C185.319 64.4616 185.953 64.4616 186.343 64.0711L192.707 57.7071ZM161 57V56H160V57H161ZM161 350H160V351H161V350ZM191.487 350.707C191.877 350.317 191.877 349.683 191.487 349.293L185.123 342.929C184.732 342.538 184.099 342.538 183.708 342.929C183.318 343.319 183.318 343.953 183.708 344.343L189.365 350L183.708 355.657C183.318 356.047 183.318 356.681 183.708 357.071C184.099 357.462 184.732 357.462 185.123 357.071L191.487 350.707ZM192 56H161V58H192V56ZM160 57V350H162V57H160ZM161 351H190.78V349H161V351Z" fill="#686E76"/>
<path d="M193.707 204.707C194.098 204.317 194.098 203.683 193.707 203.293L187.343 196.929C186.953 196.538 186.319 196.538 185.929 196.929C185.538 197.319 185.538 197.953 185.929 198.343L191.586 204L185.929 209.657C185.538 210.047 185.538 210.681 185.929 211.071C186.319 211.462 186.953 211.462 187.343 211.071L193.707 204.707ZM96.2929 203.293C95.9024 203.683 95.9024 204.317 96.2929 204.707L102.657 211.071C103.047 211.462 103.681 211.462 104.071 211.071C104.462 210.681 104.462 210.047 104.071 209.657L98.4142 204L104.071 198.343C104.462 197.953 104.462 197.319 104.071 196.929C103.681 196.538 103.047 196.538 102.657 196.929L96.2929 203.293ZM193 203L97 203L97 205L193 205L193 203Z" fill="#686E76"/>
<path d="M263.293 194.293C262.902 194.683 262.902 195.317 263.293 195.707L269.657 202.071C270.047 202.462 270.681 202.462 271.071 202.071C271.462 201.681 271.462 201.047 271.071 200.657L265.414 195L271.071 189.343C271.462 188.953 271.462 188.319 271.071 187.929C270.681 187.538 270.047 187.538 269.657 187.929L263.293 194.293ZM263.293 53.2929C262.902 53.6834 262.902 54.3166 263.293 54.7071L269.657 61.0711C270.047 61.4616 270.681 61.4616 271.071 61.0711C271.462 60.6805 271.462 60.0474 271.071 59.6569L265.414 54L271.071 48.3431C271.462 47.9526 271.462 47.3195 271.071 46.9289C270.681 46.5384 270.047 46.5384 269.657 46.9289L263.293 53.2929ZM337 124.5C337 162.839 304.363 194 264 194V196C305.375 196 339 164.033 339 124.5H337ZM264 55C304.363 55 337 86.1613 337 124.5H339C339 84.9665 305.375 53 264 53V55Z" fill="#686E76"/>
<path d="M263.293 358.293C262.902 358.683 262.902 359.317 263.293 359.707L269.657 366.071C270.047 366.462 270.681 366.462 271.071 366.071C271.462 365.681 271.462 365.047 271.071 364.657L265.414 359L271.071 353.343C271.462 352.953 271.462 352.319 271.071 351.929C270.681 351.538 270.047 351.538 269.657 351.929L263.293 358.293ZM263.293 217.293C262.902 217.683 262.902 218.317 263.293 218.707L269.657 225.071C270.047 225.462 270.681 225.462 271.071 225.071C271.462 224.681 271.462 224.047 271.071 223.657L265.414 218L271.071 212.343C271.462 211.953 271.462 211.319 271.071 210.929C270.681 210.538 270.047 210.538 269.657 210.929L263.293 217.293ZM337 288.5C337 326.839 304.363 358 264 358V360C305.375 360 339 328.033 339 288.5H337ZM264 219C304.363 219 337 250.161 337 288.5H339C339 248.967 305.375 217 264 217V219Z" fill="#686E76"/>
<rect x="307" y="109" width="56" height="30" fill="white"/>
<rect x="307" y="273" width="56" height="30" fill="white"/>
<path d="M328.179 126.598H322.779V125.05H328.179V126.598ZM325.227 119.074H325.731L321.861 130H320.061L324.579 117.4H326.379L330.897 130H329.097L325.227 119.074ZM332.124 134.356V121.18H333.384L333.672 123.196L333.222 122.872C333.594 122.296 334.053 121.84 334.599 121.504C335.145 121.168 335.814 121 336.606 121C337.41 121 338.1 121.204 338.676 121.612C339.252 122.02 339.693 122.572 339.999 123.268C340.305 123.958 340.458 124.732 340.458 125.59C340.458 126.448 340.314 127.225 340.026 127.921C339.738 128.611 339.309 129.16 338.739 129.568C338.169 129.976 337.458 130.18 336.606 130.18C335.904 130.18 335.268 130.036 334.698 129.748C334.134 129.454 333.726 129.016 333.474 128.434L333.744 128.11V134.356H332.124ZM336.3 128.74C337.086 128.74 337.698 128.464 338.136 127.912C338.58 127.354 338.802 126.58 338.802 125.59C338.802 124.6 338.58 123.829 338.136 123.277C337.698 122.719 337.086 122.44 336.3 122.44C335.814 122.44 335.37 122.557 334.968 122.791C334.572 123.019 334.254 123.367 334.014 123.835C333.774 124.297 333.654 124.882 333.654 125.59C333.654 126.328 333.774 126.928 334.014 127.39C334.254 127.852 334.572 128.194 334.968 128.416C335.37 128.632 335.814 128.74 336.3 128.74ZM342.144 134.356V121.18H343.404L343.692 123.196L343.242 122.872C343.614 122.296 344.073 121.84 344.619 121.504C345.165 121.168 345.834 121 346.626 121C347.43 121 348.12 121.204 348.696 121.612C349.272 122.02 349.713 122.572 350.019 123.268C350.325 123.958 350.478 124.732 350.478 125.59C350.478 126.448 350.334 127.225 350.046 127.921C349.758 128.611 349.329 129.16 348.759 129.568C348.189 129.976 347.478 130.18 346.626 130.18C345.924 130.18 345.288 130.036 344.718 129.748C344.154 129.454 343.746 129.016 343.494 128.434L343.764 128.11V134.356H342.144ZM346.32 128.74C347.106 128.74 347.718 128.464 348.156 127.912C348.6 127.354 348.822 126.58 348.822 125.59C348.822 124.6 348.6 123.829 348.156 123.277C347.718 122.719 347.106 122.44 346.32 122.44C345.834 122.44 345.39 122.557 344.988 122.791C344.592 123.019 344.274 123.367 344.034 123.835C343.794 124.297 343.674 124.882 343.674 125.59C343.674 126.328 343.794 126.928 344.034 127.39C344.274 127.852 344.592 128.194 344.988 128.416C345.39 128.632 345.834 128.74 346.32 128.74Z" fill="#0A141E"/>
<path d="M328.179 290.598H322.779V289.05H328.179V290.598ZM325.227 283.074H325.731L321.861 294H320.061L324.579 281.4H326.379L330.897 294H329.097L325.227 283.074ZM332.124 298.356V285.18H333.384L333.672 287.196L333.222 286.872C333.594 286.296 334.053 285.84 334.599 285.504C335.145 285.168 335.814 285 336.606 285C337.41 285 338.1 285.204 338.676 285.612C339.252 286.02 339.693 286.572 339.999 287.268C340.305 287.958 340.458 288.732 340.458 289.59C340.458 290.448 340.314 291.225 340.026 291.921C339.738 292.611 339.309 293.16 338.739 293.568C338.169 293.976 337.458 294.18 336.606 294.18C335.904 294.18 335.268 294.036 334.698 293.748C334.134 293.454 333.726 293.016 333.474 292.434L333.744 292.11V298.356H332.124ZM336.3 292.74C337.086 292.74 337.698 292.464 338.136 291.912C338.58 291.354 338.802 290.58 338.802 289.59C338.802 288.6 338.58 287.829 338.136 287.277C337.698 286.719 337.086 286.44 336.3 286.44C335.814 286.44 335.37 286.557 334.968 286.791C334.572 287.019 334.254 287.367 334.014 287.835C333.774 288.297 333.654 288.882 333.654 289.59C333.654 290.328 333.774 290.928 334.014 291.39C334.254 291.852 334.572 292.194 334.968 292.416C335.37 292.632 335.814 292.74 336.3 292.74ZM342.144 298.356V285.18H343.404L343.692 287.196L343.242 286.872C343.614 286.296 344.073 285.84 344.619 285.504C345.165 285.168 345.834 285 346.626 285C347.43 285 348.12 285.204 348.696 285.612C349.272 286.02 349.713 286.572 350.019 287.268C350.325 287.958 350.478 288.732 350.478 289.59C350.478 290.448 350.334 291.225 350.046 291.921C349.758 292.611 349.329 293.16 348.759 293.568C348.189 293.976 347.478 294.18 346.626 294.18C345.924 294.18 345.288 294.036 344.718 293.748C344.154 293.454 343.746 293.016 343.494 292.434L343.764 292.11V298.356H342.144ZM346.32 292.74C347.106 292.74 347.718 292.464 348.156 291.912C348.6 291.354 348.822 290.58 348.822 289.59C348.822 288.6 348.6 287.829 348.156 287.277C347.718 286.719 347.106 286.44 346.32 286.44C345.834 286.44 345.39 286.557 344.988 286.791C344.592 287.019 344.274 287.367 344.034 287.835C343.794 288.297 343.674 288.882 343.674 289.59C343.674 290.328 343.794 290.928 344.034 291.39C344.274 291.852 344.592 292.194 344.988 292.416C345.39 292.632 345.834 292.74 346.32 292.74Z" fill="#0A141E"/>
</svg>
